<?xml version="1.0" standalone="no"?>
<!DOCTYPE svg PUBLIC "-//W3C//DTD SVG 20010904//EN"
 "http://www.w3.org/TR/2001/REC-SVG-20010904/DTD/svg10.dtd">
<svg version="1.0" xmlns="http://www.w3.org/2000/svg"
 width="449.000000pt" height="449.000000pt" viewBox="0 0 449.000000 449.000000"
 preserveAspectRatio="xMidYMid meet">
<metadata>
Created by potrace 1.11, written by Peter Selinger 2001-2013
</metadata>
<g transform="translate(0.000000,449.000000) scale(0.100000,-0.100000)"
fill="#000000" stroke="none">
<path d="M15 3380 c-3 -5 -2 -10 3 -10 4 0 16 -15 25 -34 22 -46 184 -234 238
-276 24 -19 59 -49 77 -67 59 -59 234 -155 382 -209 l65 -24 -100 6 c-114 7
-294 30 -339 43 -17 6 -60 15 -96 21 -36 7 -78 14 -93 17 l-28 5 38 -40 c126
-132 400 -267 613 -304 39 -7 70 -15 70 -19 0 -11 -199 -21 -367 -17 -89 1
-165 0 -169 -4 -4 -5 -1 -8 6 -8 7 0 21 -6 29 -14 22 -20 160 -74 261 -102 80
-22 212 -41 325 -47 44 -2 36 -5 -70 -24 -142 -26 -267 -43 -312 -43 -91 0 -6
-36 142 -61 76 -13 254 -16 350 -6 l60 6 -75 -24 c-41 -14 -124 -36 -185 -51
-145 -34 -148 -35 -95 -46 62 -13 266 -1 375 21 50 10 91 17 93 16 4 -4 -88
-40 -201 -79 -112 -39 -124 -46 -75 -46 123 0 433 82 570 151 21 11 39 19 41
19 2 0 -4 -30 -14 -67 -86 -309 47 -653 317 -826 137 -87 250 -120 409 -120
138 -1 219 18 345 80 80 40 109 61 185 138 103 103 144 168 188 292 25 73 31
108 35 203 4 102 -5 195 -23 240 -4 12 27 5 126 -28 127 -42 314 -82 387 -82
48 0 36 9 -61 42 -115 40 -219 80 -215 83 2 1 42 -5 90 -15 109 -23 277 -34
357 -25 34 4 60 9 57 12 -3 3 -81 25 -173 48 -202 52 -245 68 -158 58 94 -10
273 -7 350 6 148 25 233 61 142 61 -45 0 -170 17 -312 43 -106 19 -114 22 -70
24 112 6 245 25 325 47 100 28 238 81 261 102 8 8 22 14 29 14 7 0 10 3 6 8
-4 4 -80 5 -169 4 -168 -4 -367 6 -367 17 0 4 31 12 70 19 213 37 487 172 613
304 l38 40 -28 -5 c-15 -3 -57 -10 -93 -17 -36 -6 -79 -15 -96 -21 -45 -13
-225 -36 -339 -43 l-100 -6 65 24 c148 54 331 154 385 211 17 17 50 46 74 65
51 40 213 225 237 272 9 18 21 36 26 39 6 4 6 9 -1 14 -7 3 -28 -3 -48 -15
-20 -11 -75 -37 -122 -56 -339 -141 -422 -160 -941 -223 -215 -26 -339 -59
-475 -125 -138 -68 -259 -153 -371 -264 l-88 -85 -112 2 c-61 1 -139 -3 -172
-9 l-60 -12 -94 93 c-119 119 -243 207 -383 275 -137 66 -263 99 -475 125
-519 63 -601 82 -942 223 -48 20 -102 45 -120 56 -38 23 -44 24 -53 10z m2164
-1308 c24 -70 48 -138 53 -152 l10 -25 13 25 c10 18 14 63 15 153 l0 127 40 0
40 0 0 -134 c0 -74 4 -137 9 -140 7 -5 26 40 102 252 7 19 16 22 58 22 60 0
55 18 71 -255 6 -104 13 -227 17 -272 l6 -83 -81 0 -82 0 -36 71 c-19 39 -37
69 -39 67 -2 -2 -14 -33 -27 -68 -21 -60 -26 -65 -55 -68 -30 -3 -32 -1 -49
52 -10 31 -20 56 -24 56 -3 0 -19 -25 -35 -55 l-30 -55 -82 0 c-72 0 -83 2
-83 18 0 9 9 139 20 287 11 149 20 278 20 288 0 14 9 17 53 17 l52 0 44 -128z"/>
<path d="M2091 2042 c-1 -41 -6 -150 -12 -243 -6 -93 -9 -173 -7 -179 2 -6 29
34 60 88 l57 98 -38 119 c-21 66 -43 136 -49 155 -9 32 -10 29 -11 -38z"/>
<path d="M2458 1968 l-47 -136 60 -109 60 -108 -7 105 c-3 58 -9 168 -13 245
l-6 140 -47 -137z"/>
<path d="M2287 1845 c-14 -30 -15 -43 -5 -85 6 -27 14 -47 18 -45 4 2 12 28
19 58 11 45 11 58 -1 81 l-14 27 -17 -36z"/>
</g>
</svg>
